# xmcd
#
# Track frame offsets: 
#        150
#        14328
#        31329
#        51385
#        67560
#        84093
#
# Disc length: 1320 seconds
#
# Revision: 0
# Processed by: cddbd v1.5.2PL0 Copyright (c) Steve Scherf et al.
# Submitted via: ExactAudioCopy v0.95b4
#
DISCID=3a052606
DTITLE=RL Burnside - Mathew Block Recordings
DYEAR=1900
DGENRE=Blues
TTITLE0=Poor Black Mattie
TTITLE1=Walkin' Blues
TTITLE2=Goin' Down South
TTITLE3=Poor Boy
TTITLE4=Long Haired Doney
TTITLE5=44 Pistol
EXTD=
EXTT0=
EXTT1=
EXTT2=
EXTT3=
EXTT4=
EXTT5=
PLAYORDER=
